<svg width="121" height="31" viewBox="0 0 121 31" fill="none" xmlns="http://www.w3.org/2000/svg">
<path d="M0 4.75439H14.7828V10.8864H0.899332C0.322554 8.89305 0.019976 6.82996 0 4.75439Z" fill="#F48120"/>
<path d="M4.76952 19.3471C3.48484 17.3779 2.40838 15.2796 1.55762 13.0862H16.9025V19.339C16.9025 19.339 12.181 19.2826 4.76952 19.339" fill="#F48120"/>
<path d="M17.8334 30.6921C17.603 30.8135 17.3468 30.8769 17.0866 30.8769C16.8264 30.8769 16.5701 30.8135 16.3398 30.6921C13.5941 29.156 11.1088 27.1923 8.97654 24.8743C8.89624 24.7535 8.84806 24.6326 8.88018 24.552C8.9123 24.4714 9.30576 24.3909 9.77148 24.3909H25.1163C25.1621 24.3936 25.2065 24.4075 25.2457 24.4313C25.2849 24.4552 25.3177 24.4883 25.3412 24.5279C25.3412 24.6004 25.3412 24.7132 25.2528 24.834C23.1102 27.175 20.6048 29.1531 17.8334 30.6921Z" fill="#F48120"/>
<path d="M29.4214 19.4113C29.0601 19.9834 28.6827 20.5474 28.2892 21.1034L28.1688 21.2646L27.7994 21.7641C27.7432 21.8205 27.695 21.8528 27.6549 21.8447C27.6147 21.8367 27.5906 21.7722 27.5826 21.6836V21.2323C27.5826 21.1598 27.5826 21.0792 27.5826 20.9986V13.6902L25.6474 12.965V6.18034L16.2365 2.48986H3.62983C3.5415 2.48986 3.5415 2.48986 3.5415 2.48986C3.5415 2.48986 3.5415 2.43346 3.58968 2.40123C5.08667 1.8431 6.62162 1.3934 8.1827 1.05557C11.1058 0.390725 14.0907 0.0369131 17.0877 0C20.0941 0.0215986 23.0897 0.361916 26.0248 1.01528C28.6946 1.53317 31.2628 2.48293 33.629 3.82746C33.7938 3.92279 33.9319 4.05856 34.0302 4.22204C34.1285 4.38552 34.1839 4.57136 34.1911 4.76217C34.1911 9.53239 32.3683 14.7297 29.4375 19.4032" fill="#F48120"/>
<path d="M53.1644 17.9288H42.4447V15.866H53.1082C53.3808 15.8585 53.6451 15.96 53.8432 16.1481C54.0412 16.3363 54.1566 16.5956 54.1641 16.8692C54.1715 17.1427 54.0704 17.408 53.8829 17.6067C53.6954 17.8055 53.437 17.9213 53.1644 17.9288ZM42.4447 12.3769H53.06C53.3198 12.3769 53.569 12.4805 53.7527 12.6649C53.9364 12.8492 54.0396 13.0993 54.0396 13.36C54.0396 13.6207 53.9364 13.8708 53.7527 14.0551C53.569 14.2395 53.3198 14.343 53.06 14.343H42.4447V12.3769ZM54.6981 14.9796C55.0983 14.7113 55.4018 14.3208 55.5636 13.8658C55.7254 13.4109 55.7369 12.9158 55.5964 12.4538C55.4558 11.9918 55.1707 11.5875 54.7833 11.3008C54.3959 11.0141 53.9268 10.8603 53.4454 10.8621H40.7905V19.4114H53.6381C54.1672 19.4093 54.6802 19.2283 55.0941 18.8976C55.508 18.5669 55.7988 18.1059 55.9195 17.5889C56.0402 17.072 55.9837 16.5293 55.7591 16.0485C55.5346 15.5678 55.1551 15.177 54.682 14.9393" fill="white"/>
<path d="M59.1229 12.3689H69.3849C69.7043 12.3689 70.0107 12.4962 70.2366 12.7229C70.4625 12.9496 70.5894 13.257 70.5894 13.5776C70.5894 13.8981 70.4625 14.2056 70.2366 14.4322C70.0107 14.6589 69.7043 14.7862 69.3849 14.7862H59.1229V12.3689ZM70.5412 19.4114H72.4523L70.1879 16.1883C70.8493 16.0514 71.4362 15.6719 71.8337 15.1241C72.2313 14.5762 72.411 13.8992 72.3377 13.2255C72.2644 12.5517 71.9435 11.9296 71.4375 11.4806C70.9316 11.0317 70.277 10.7882 69.6017 10.7976H57.4688V19.4114H59.1229V16.2689H68.3089L70.5412 19.4114Z" fill="white"/>
<path d="M107.671 12.3689H117.933C118.252 12.3689 118.559 12.4962 118.784 12.7229C119.01 12.9496 119.137 13.257 119.137 13.5776C119.137 13.8981 119.01 14.2056 118.784 14.4322C118.559 14.6589 118.252 14.7862 117.933 14.7862H107.671V12.3689ZM119.089 19.4114H121L118.728 16.1883C119.389 16.0514 119.976 15.6719 120.374 15.1241C120.771 14.5762 120.951 13.8992 120.878 13.2255C120.804 12.5517 120.483 11.9296 119.977 11.4806C119.471 11.0317 118.817 10.7882 118.142 10.7976H106.017V19.4114H107.671V16.2689H116.857L119.089 19.4114Z" fill="white"/>
<path d="M75.3509 14.3914V13.5856C75.3508 13.2692 75.4744 12.9654 75.6951 12.7394C75.9158 12.5134 76.216 12.3833 76.5313 12.3769H86.9057V14.3994L75.3509 14.3914ZM76.2984 10.854C75.6038 10.8829 74.9467 11.1781 74.4626 11.6789C73.9785 12.1796 73.7044 12.8477 73.6968 13.5453V19.4114H75.3509V15.9063H86.9057V19.4114H88.5598V10.8459L76.2984 10.854Z" fill="white"/>
<path d="M104.419 17.9366H91.9973V15.906H101.954V14.3911H91.9973V12.3606H104.419V10.8538H90.3271V19.4434H104.419V17.9366Z" fill="white"/>
</svg>
